<svg width="45" height="45" viewBox="0 0 45 45" fill="none" xmlns="http://www.w3.org/2000/svg">
<path d="M0 0H45V45H0V0Z" fill="#FAFAFA"/>
<path d="M11.1337 29.8559C10.6923 30.0617 10.1667 30.0765 9.70992 29.8481C8.92379 29.4638 8.62567 28.5209 9.04965 27.7426L11.7568 22.7591C12.104 22.1197 12.846 21.7713 13.5607 21.9202L17.9002 22.7994L20.0093 18.9105C20.3576 18.2682 21.0985 17.9227 21.8143 18.0687L26.1488 18.9526L28.2569 15.0665C28.6052 14.4243 29.3471 14.0759 30.0619 14.2248L35.6044 15.3586C36.4749 15.538 37.0066 16.3696 36.7946 17.2218C36.5808 18.07 35.7079 18.6162 34.8393 18.4408L30.5137 17.5503L28.4075 21.4403C28.0592 22.0825 27.3183 22.428 26.6025 22.282L22.268 21.3982L20.1589 25.2871C19.8106 25.9293 19.0668 26.2738 18.3539 26.1288L14.0125 25.2458L11.8984 29.1394C11.7252 29.4625 11.449 29.7088 11.1337 29.8559Z" fill="url(#paint0_linear_3_4)"/>
<defs>
<linearGradient id="paint0_linear_3_4" x1="16.6362" y1="6.84539" x2="28.8461" y2="39.0846" gradientUnits="userSpaceOnUse">
<stop offset="0.0271195" stop-color="#6C48D3"/>
<stop offset="0.287564" stop-color="#4D4DE2"/>
<stop offset="0.808912" stop-color="#3778FC"/>
<stop offset="0.967351" stop-color="#0370FF"/>
</linearGradient>
</defs>
</svg>
